<?xml version="1.0" encoding="UTF-8"?>
<svg width="284px" height="215px" viewBox="0 0 284 215" version="1.1" xmlns="http://www.w3.org/2000/svg" xmlns:xlink="http://www.w3.org/1999/xlink">
    <!-- Generator: Sketch 55.2 (78181) - https://sketchapp.com -->
    <title>Group 69</title>
    <desc>Created with Sketch.</desc>
    <g id="Design" stroke="none" stroke-width="1" fill="none" fill-rule="evenodd">
        <g id="300_Homepage" transform="translate(-161.000000, -2460.000000)">
            <g id="Group-69" transform="translate(161.000000, 2461.000000)">
                <polygon id="Fill-1" fill="#059FF5" points="213.325784 59 275 105.829403 253.2659 180.696521 182.899744 212 131 153.742748 138.883711 77.2427484"></polygon>
                <polygon id="Fill-2" fill="#DFF5FF" points="0 40.3408577 17.3575781 100.039538 73.553054 125 115 78.5464463 108.704203 17.5468302 49.2533657 3"></polygon>
                <polyline id="Stroke-3" stroke="#606060" stroke-linecap="round" stroke-linejoin="round" points="103 30 70.6553733 59 8 38.6139065"></polyline>
                <path d="M109,24 L106,27" id="Stroke-4" stroke="#606060" stroke-linecap="round" stroke-linejoin="round"></path>
                <path d="M119,15 L112,21" id="Stroke-5" stroke="#606060" stroke-linecap="round" stroke-linejoin="round"></path>
                <path d="M81,115 L71,59" id="Stroke-6" stroke="#464646" stroke-linecap="round" stroke-linejoin="round"></path>
                <path d="M116,66 L115,59" id="Stroke-7" stroke="#464646" stroke-linecap="round" stroke-linejoin="round"></path>
                <g id="graphic_dice" transform="translate(9.000000, 0.000000)">
                    <path d="M28.9169673,72.2523632 C27.3839278,73.788414 24.1735718,73.0625198 21.745552,70.6297309 C19.3183038,68.198488 18.5930611,64.9810531 20.1261006,63.4442293 C21.6599117,61.9089517 24.8702677,62.6356188 27.2975159,65.0676347 C29.7247642,67.4996507 30.4500068,70.7170856 28.9169673,72.2523632" id="Fill-8" fill="#FFFFFF"></path>
                    <path d="M55.1709825,97.5236833 C53.637943,99.059734 50.4268155,98.3338399 47.9995672,95.9010509 C45.572319,93.469035 44.8470763,90.2523732 46.3793443,88.7155494 C47.9131553,87.1794986 51.1242829,87.9069389 53.5507596,90.3381817 C55.9787794,92.7709707 56.7032505,95.9876325 55.1709825,97.5236833" id="Fill-10" fill="#FFFFFF"></path>
                    <path d="M103.792793,41.8255715 C102.743505,45.9010921 100.190497,48.7652431 98.0903793,48.2217888 C95.9918049,47.6791075 95.1408021,43.9352255 96.1900893,39.8597048 C97.2409196,35.7849573 99.7931565,32.9200333 101.892502,33.4634875 C103.99262,34.0069418 104.842851,37.7508239 103.792793,41.8255715" id="Fill-12" fill="#FFFFFF"></path>
                    <path d="M96.6681322,69.4847662 C95.6180734,73.5602869 93.065065,76.4244378 90.965719,75.8809835 C88.866373,75.3383023 88.0153702,71.5944202 89.065429,67.5188996 C90.1154878,63.443379 92.6677246,60.579228 94.7678422,61.1226823 C96.8671882,61.6653635 97.7174194,65.4100187 96.6681322,69.4847662" id="Fill-14" fill="#FFFFFF"></path>
                    <path d="M90.3263482,94.1030908 C89.277061,98.1778383 86.723281,101.042762 84.623935,100.499308 C82.5253606,99.9558538 81.6735862,96.2127448 82.723645,92.1372241 C83.7737037,88.0617035 86.3267122,85.1975526 88.4260582,85.7410068 C90.5254042,86.2836881 91.3756354,90.0275702 90.3263482,94.1030908" id="Fill-16" fill="#FFFFFF"></path>
                    <path d="M62.6294087,23.9669524 C63.7103289,26.3579967 61.7182262,29.5986231 58.179968,31.2050214 C54.6417097,32.8114197 50.8974517,32.1751994 49.8165315,29.7841551 C48.7348398,27.3938839 50.726171,24.1524845 54.2644292,22.5460862 C57.8026875,20.9396879 61.5484886,21.5759082 62.6294087,23.9669524" id="Fill-18" fill="#FFFFFF"></path>
                    <path d="M30.4253949,69.986012 C28.8923554,71.5212897 25.6819994,70.7953955 23.2539796,68.3626066 C20.8267313,65.9313637 20.1014887,62.7139288 21.6345282,61.1778781 C23.1683392,59.6418274 26.3786952,60.3684945 28.8059435,62.8005104 C31.2331917,65.2332994 31.9584344,68.4499613 30.4253949,69.986012 Z" id="Stroke-20" stroke="#464646" stroke-linecap="round" stroke-linejoin="round"></path>
                    <path d="M56.6786385,95.2566363 C55.1463706,96.792687 51.935243,96.0667929 49.5079948,93.6340039 C47.0807465,91.201988 46.3555039,87.9853262 47.8877718,86.4485024 C49.4215829,84.9132247 52.6319389,85.6398919 55.0591871,88.0719078 C57.4872069,90.5039237 58.211678,93.7213586 56.6786385,95.2566363 Z" id="Stroke-22" stroke="#464646" stroke-linecap="round" stroke-linejoin="round"></path>
                    <path d="M105.301143,39.5592975 C104.251856,43.6340451 101.698847,46.4981961 99.5987297,45.9547418 C97.5001553,45.4120605 96.6491524,41.6689515 97.6984397,37.5926578 C98.74927,33.5179103 101.301507,30.6529863 103.400853,31.1972136 C105.50097,31.7398948 106.351202,35.4837769 105.301143,39.5592975 Z" id="Stroke-24" stroke="#464646" stroke-linecap="round" stroke-linejoin="round"></path>
                    <path d="M98.1765598,67.2177193 C97.126501,71.2932399 94.5734926,74.1573908 92.4741466,73.6139365 C90.3748006,73.0712553 89.5237978,69.3273732 90.5738565,65.2518526 C91.6239153,61.176332 94.1761522,58.312181 96.2762697,58.8556353 C98.3756157,59.3990896 99.225847,63.1429717 98.1765598,67.2177193 Z" id="Stroke-26" stroke="#464646" stroke-linecap="round" stroke-linejoin="round"></path>
                    <path d="M91.8346986,91.8360438 C90.7846398,95.9115644 88.2316314,98.7757154 86.1322854,98.2322611 C84.0329394,97.6895798 83.1819366,93.9456978 84.2319954,89.8701771 C85.2820541,85.7946565 87.834291,82.9305056 89.9344086,83.4739598 C92.0337545,84.0166411 92.8839858,87.7612962 91.8346986,91.8360438 Z" id="Stroke-28" stroke="#464646" stroke-linecap="round" stroke-linejoin="round"></path>
                    <path d="M64.1378363,21.6998281 C65.2187564,24.0908724 63.2266538,27.3314988 59.6883955,28.9378971 C56.1501372,30.5442954 52.4058792,29.9080751 51.3249591,27.5170308 C50.2424958,25.1267596 52.2345985,21.8861332 55.7728568,20.2789619 C59.311115,18.6725636 63.0561446,19.3087839 64.1378363,21.6998281 Z" id="Stroke-30" stroke="#464646" stroke-linecap="round" stroke-linejoin="round"></path>
                    <polyline id="Stroke-32" stroke="#464646" stroke-linecap="round" stroke-linejoin="round" points="155.003975 93.2558393 197.507052 132.507463 265.355044 109.768191"></polyline>
                    <path d="M148.97258,87.6859353 L153.618762,91.97791" id="Stroke-34" stroke="#464646" stroke-linecap="round" stroke-linejoin="round"></path>
                    <path d="M138.69782,78.1979811 L143.428871,82.5664877" id="Stroke-36" stroke="#464646" stroke-linecap="round" stroke-linejoin="round"></path>
                    <path d="M182.605167,212.613552 L197.506589,132.507772" id="Stroke-38" stroke="#464646" stroke-linecap="round" stroke-linejoin="round"></path>
                    <path d="M238.804374,149.645444 C240.710065,151.554878 244.699671,150.651956 247.716372,147.62933 C250.732301,144.606703 251.633454,140.609261 249.727763,138.7006 C247.822843,136.791166 243.833237,137.694088 240.816537,140.715942 C237.799836,143.738568 236.898683,147.736011 238.804374,149.645444" id="Fill-40" fill="#FFFFFF"></path>
                    <path d="M206.179179,181.049836 C208.08487,182.958496 212.074476,182.055574 215.091177,179.033721 C218.107106,176.010321 219.008259,172.013652 217.10334,170.104218 C215.197649,168.195557 211.208814,169.097706 208.191342,172.120333 C205.174641,175.142959 204.27426,179.140402 206.179179,181.049836" id="Fill-42" fill="#FFFFFF"></path>
                    <path d="M145.7569,111.834709 C147.061565,116.898961 150.234116,120.457311 152.843447,119.783211 C155.451234,119.108338 156.50978,114.456122 155.204343,109.391098 C153.899678,104.326846 150.727127,100.768496 148.118568,101.443368 C145.510009,102.117468 144.453006,106.769684 145.7569,111.834709" id="Fill-44" fill="#FFFFFF"></path>
                    <path d="M154.611418,146.20599 C155.915312,151.271014 159.088634,154.829364 161.697193,154.154492 C164.305752,153.479619 165.363526,148.827403 164.058861,143.763151 C162.754196,138.698126 159.580874,135.139776 156.973086,135.814649 C154.363756,136.488749 153.306753,141.140965 154.611418,146.20599" id="Fill-46" fill="#FFFFFF"></path>
                    <path d="M162.491797,176.798833 C163.796462,181.863084 166.969013,185.421434 169.578343,184.746562 C172.186131,184.072462 173.244676,179.420246 171.93924,174.355221 C170.635346,169.290969 167.462024,165.732619 164.853465,166.406719 C162.244906,167.081592 161.187903,171.733808 162.491797,176.798833" id="Fill-48" fill="#FFFFFF"></path>
                    <path d="M196.91027,89.6412112 C195.567028,92.6128161 198.042111,96.6396346 202.439088,98.6364232 C206.836064,100.632439 211.48919,99.8416085 212.833975,96.8715496 C214.177217,93.8999447 211.702134,89.8731262 207.305157,87.8763376 C202.908181,85.880322 198.254283,86.6696062 196.91027,89.6412112" id="Fill-50" fill="#FFFFFF"></path>
                    <path d="M237.296024,151.156835 C239.201714,153.066269 243.191321,152.163346 246.208021,149.14072 C249.223951,146.118094 250.125103,142.120651 248.220184,140.21199 C246.314493,138.302556 242.324887,139.205479 239.308186,142.227332 C236.291485,145.249958 235.390333,149.247401 237.296024,151.156835 Z" id="Stroke-52" stroke="#464646" stroke-linecap="round" stroke-linejoin="round"></path>
                    <path d="M204.670752,182.560453 C206.576443,184.469887 210.566049,183.566964 213.582749,180.545111 C216.598679,177.521712 217.499831,173.525042 215.594912,171.615608 C213.689221,169.706174 209.700387,170.609097 206.682914,173.631723 C203.666214,176.653576 202.765833,180.651792 204.670752,182.560453 Z" id="Stroke-54" stroke="#464646" stroke-linecap="round" stroke-linejoin="round"></path>
                    <path d="M144.248472,113.3461 C145.553138,118.410351 148.725689,121.968701 151.335019,121.294602 C153.942806,120.619729 155.001352,115.967513 153.695915,110.902488 C152.392022,105.838236 149.218699,102.279886 146.61014,102.954759 C144.001581,103.628859 142.944579,108.281075 144.248472,113.3461 Z" id="Stroke-56" stroke="#464646" stroke-linecap="round" stroke-linejoin="round"></path>
                    <path d="M153.103068,147.71738 C154.406962,152.782405 157.580284,156.339982 160.188843,155.665882 C162.797402,154.991009 163.855176,150.338793 162.550511,145.274541 C161.245845,140.209517 158.072523,136.651166 155.464736,137.326039 C152.855405,138.000139 151.798403,142.652355 153.103068,147.71738 Z" id="Stroke-58" stroke="#464646" stroke-linecap="round" stroke-linejoin="round"></path>
                    <path d="M160.983369,178.30945 C162.288035,183.374475 165.461357,186.932825 168.069916,186.257952 C170.678475,185.583852 171.736249,180.931636 170.430812,175.866611 C169.126918,170.801586 165.953596,167.244009 163.345037,167.918109 C160.736478,168.592982 159.679476,173.245198 160.983369,178.30945 Z" id="Stroke-60" stroke="#464646" stroke-linecap="round" stroke-linejoin="round"></path>
                    <path d="M195.402614,92.1526016 C194.0586,95.1242066 196.533684,99.151025 200.93066,101.147814 C205.327636,103.143829 209.981534,102.352999 211.325547,99.3829401 C212.668789,96.4113351 210.193706,92.3837436 205.79673,90.387728 C201.399753,88.3917124 196.745856,89.1809967 195.402614,92.1526016 Z" id="Stroke-62" fill="#5CE1C7"></path>
                    <path d="M197.402614,90.1526016 C196.0586,93.1242066 198.533684,97.151025 202.93066,99.1478137 C207.327636,101.143829 211.981534,100.352999 213.325547,97.3829401 C214.668789,94.4113351 212.193706,90.3837436 207.79673,88.387728 C203.399753,86.3917124 198.745856,87.1809967 197.402614,90.1526016 Z" id="Stroke-62" stroke="#464646" stroke-linecap="round" stroke-linejoin="round"></path>
                    <polyline id="Stroke-64" stroke="#464646" stroke-linecap="round" stroke-linejoin="round" points="225.632579 69.6257048 212.95472 60.0004569 138.697589 78.1980584 130.833335 154.504297 182.604859 212.613707 252.796774 181.388663 274.476899 106.712015 229.108343 72.2648982"></polyline>
                    <polyline id="Stroke-66" stroke="#464646" stroke-linecap="round" stroke-linejoin="round" points="84.5872871 111.19925 115.802039 76.1630696 109.473911 14.7581466 49.7177751 0.115029869 0.211477669 37.7038225 17.657421 97.7968792 74.1414784 122.92333 81.8467958 114.275217 81.6716574 114.275217"></polyline>
                </g>
            </g>
        </g>
    </g>
</svg>