<?xml version="1.0" encoding="UTF-8"?>
<svg width="185px" height="206px" viewBox="0 0 185 206" version="1.1" xmlns="http://www.w3.org/2000/svg" xmlns:xlink="http://www.w3.org/1999/xlink">
    <!-- Generator: Sketch 55.2 (78181) - https://sketchapp.com -->
    <title>graphic_magnify</title>
    <desc>Created with Sketch.</desc>
    <g id="Design" stroke="none" stroke-width="1" fill="none" fill-rule="evenodd">
        <g id="300_Homepage" transform="translate(-625.000000, -2461.000000)">
            <g id="graphic_magnify" transform="translate(625.000000, 2462.000000)">
                <path d="M179.041346,200.624529 L177.774843,201.72493 C175.635769,203.583041 172.366553,203.387699 170.472653,201.286933 L126,151.829886 L135.014275,144 L179.48624,193.457723 C181.38014,195.557814 181.625314,198.344262 179.48624,200.202372" id="Fill-5" fill="#464646"></path>
                <path d="M113.755372,121.117926 C89.2024903,142.701254 51.6829635,140.426919 29.9536467,116.040767 C8.22349326,91.6529521 10.5132996,54.3869356 35.0653444,32.8044385 C59.6190624,11.2211105 97.1385893,13.4946142 118.867906,37.8824287 C140.598059,62.2694123 138.30909,99.5354288 113.755372,121.117926 M129.414234,27.7896012 C102.329765,-2.60853949 55.5623321,-5.44210955 24.9582379,21.4601868 C-5.64669282,48.3616522 -8.49953887,94.8130891 18.5857663,125.210399 C45.6702349,155.608539 92.4376679,158.44211 123.041762,131.539813 C153.646693,104.638348 156.499539,58.1877419 129.414234,27.7896012" id="Fill-7" fill="#059FF5"></path>
                <path d="M127,130 L138,143" id="Stroke-25" stroke="#464646"></path>
                <path d="M129,150 L118,137" id="Stroke-27" stroke="#464646"></path>
                <path d="M72.4926279,0 C57.6001105,1.49650396 43.0229955,7.4725209 30.9582242,18.1063647 C0.353310285,45.0825985 -2.49953419,91.6608676 24.5857561,122.142554 C51.6710463,152.623406 98.437617,155.465597 129.042531,128.489364 C159.646608,101.51313 162.499453,54.9348606 135.414162,24.4540079 C124.391809,12.04869 110.109181,4.22370745 94.983249,1.12154473" id="Stroke-31" stroke="#464646" stroke-linecap="round"></path>
                <path d="M73.2351795,15.2693189 C61.3406301,16.5194285 49.7060068,21.3419989 40.0677828,29.877982 C15.4603364,51.6701606 13.1654413,89.2959419 34.9438866,113.919745 C56.7223319,138.543547 94.3244016,140.838211 118.932687,119.046033 C143.540133,97.2555322 145.83419,59.6289119 124.055744,35.0051092 C112.933427,22.4293425 97.6824779,15.6938528 82.1430952,15" id="Stroke-33" stroke="#464646" stroke-linecap="round"></path>
                <path d="M115.710832,88.970211 C113.353412,88.358226 110.936109,89.7437268 110.314492,92.071768 L108.695084,98.1208448 L84.1500877,68.380036 C83.3353231,67.3933662 82.1258277,66.8080254 80.8362054,66.7755527 C79.5474265,66.72726 78.3067238,67.2701365 77.4447264,68.21684 L65.6373863,81.1634464 L41.8725735,51.6474484 C40.3560653,49.7623679 37.5760816,49.4484653 35.6682165,50.9472043 C33.7595079,52.4451106 33.4415304,55.1878028 34.958882,57.0720507 L61.9709453,90.6204891 C62.7789624,91.6246442 63.9943619,92.2266377 65.2915752,92.2657714 C66.6166221,92.2932483 67.8404559,91.7778486 68.7092009,90.8261494 L80.5587131,77.8329155 L101.562941,103.281503 L97.4528499,103.281503 C95.0136166,103.281503 93.0365893,105.233194 93.0365893,107.641168 C93.0365893,110.048309 95.0136166,112 97.4528499,112 L110.715127,112 C112.719988,112 114.47266,110.667788 114.984629,108.754398 L118.852652,94.2982279 C119.475112,91.9701868 118.068251,89.584694 115.710832,88.970211" id="Fill-3" fill="#5CE1C7"></path>
                <path d="M100.979818,84.7721418 L84.1506626,64.3802188 C83.3358997,63.3935531 82.1255635,62.8073821 80.835944,62.7757422 C79.5471679,62.7274497 78.3073113,63.2711566 77.4453158,64.2170234 L65.6380013,77.1635757 L41.8723965,47.6477013 C40.3567351,45.7617961 37.5759139,45.4487275 35.6680529,46.9474601 C33.7593485,48.4453601 33.4413717,51.1880409 34.9595634,53.0722809 L61.9707248,86.6214113 C62.7787402,87.6255622 63.994137,88.2267205 65.2913475,88.2658541 C66.6172349,88.2933309 67.8410662,87.7779334 68.7098092,86.8254055 L80.5592957,73.8330587 L101.561792,99.2823717 L97.4517091,99.2823717 C95.0133245,99.2823717 93.0363015,101.234055 93.0363015,103.641186 C93.0363015,106.04915 95.0133245,108 97.4517091,108 L110.715644,108 C112.720501,108 114.473169,106.667793 114.985137,104.754411 L118.852309,90.2991347 C119.475611,87.9702707 118.068753,85.5856205 115.711339,84.9703075 C113.353924,84.358325 110.935782,85.7429875 110.313323,88.0718515 L108.694762,94.1217356 L105.095805,89.759591" id="Stroke-35" stroke="#464646"></path>
                <path d="M173.087501,181.71914 L137.891745,142 L127,151.626439 L171.543069,201.89369 C173.831425,204.476698 177.781545,204.716881 180.366139,202.432232 L181.896426,201.079229 C184.390319,198.875195 184.694878,195.128671 182.659489,192.548157" id="Stroke-37" stroke="#464646" stroke-linecap="round" stroke-linejoin="round"></path>
                <path d="M179,187 L176,184" id="Stroke-39" stroke="#464646" stroke-linecap="round" stroke-linejoin="round"></path>
            </g>
        </g>
    </g>
</svg>