<?xml version="1.0" encoding="UTF-8"?>
<svg width="334px" height="327px" viewBox="0 0 334 327" version="1.1" xmlns="http://www.w3.org/2000/svg" xmlns:xlink="http://www.w3.org/1999/xlink">
    <!-- Generator: Sketch 55.2 (78181) - https://sketchapp.com -->
    <title>graphic_step1</title>
    <desc>Created with Sketch.</desc>
    <g id="Design" stroke="none" stroke-width="1" fill="none" fill-rule="evenodd">
        <g id="300_Homepage" transform="translate(-794.000000, -936.000000)">
            <g id="graphic_step1" transform="translate(794.000000, 935.000000)">
                <g id="Group-18">
                    <path d="M164.311998,103.005024 C164.71205,106.062639 165.182752,107.361489 164.521086,110.26321 C163.640318,114.121084 157.409539,115.976231 156.360902,110.979286 C154.988517,104.424433 157.774412,91.0898383 160.606386,92.0491104 C162.653518,92.9501818 163.335305,95.5626109 164.311998,103.005024 Z" id="Fill-10" fill="#059FF5"></path>
                    <path d="M136,126.716874 C142.257464,135.294723 151.35399,138.50605 163.28958,136.350856 C175.22517,134.195662 183.79531,128.745377 189,120" id="Path-16" stroke="#464646"></path>
                    <path d="M109.351006,189.214345 C121.969074,177.03465 127.821986,172.14918 126.909744,174.557935 C137.095429,192.615224 149.022954,200.342093 162.692319,197.738543 C183.196366,193.833219 194.890068,174.557935 197.069756,171.748246 C199.249443,168.938557 221.351006,174.324047 221.351006,183.177463 C221.351006,192.030879 189.560976,211.082917 163.692319,209.783402 C137.823662,208.483888 90.423904,207.483888 109.351006,189.214345 Z" id="Path-17" fill="#464646"></path>
                    <path d="M6.76287171,182.508239 L87.6269531,171 L96.8554688,232.650391 L18.6478445,244.62875 C12.6427387,245.548498 7.02903545,241.426001 6.10928733,235.420896 C6.08983118,235.293865 6.07260266,235.166503 6.0576097,235.038869 L0.796946179,190.255071 C0.353689999,186.481651 3.00140731,183.043555 6.76287171,182.508239 Z" id="Rectangle" fill="#DFF5FF"></path>
                    <path d="M95.1129022,184.255466 L69.9759662,184.255466 C62.3493081,184.255466 58.5359791,187.02954 58.5359791,192.577688 C58.5359791,198.125836 62.3493081,200.899911 69.9759662,200.899911 L95.1129022,200.899911" id="Path-9" fill="#5CE1C7" transform="translate(76.824441, 192.577688) rotate(-4.000000) translate(-76.824441, -192.577688) "></path>
                    <g id="Group-9" transform="translate(53.850641, 194.892976) rotate(-8.000000) translate(-53.850641, -194.892976) translate(8.850641, 156.892976)" stroke="#464646">
                        <path d="M0.634949727,24.727413 C0.634949727,43.5848223 0.634949727,56.7964103 0.634949727,64.362177 C0.634949727,71.9279438 4.85316826,75.7108271 13.2896053,75.7108271 L88.865719,75.7108271 L88.865719,12.8871378 L82.1014905,12.8871378 L6.45721104,12.8871378 C2.5757035,12.5813027 0.634949727,10.4124958 0.634949727,6.38071723 C0.634949727,2.34893864 2.5757035,0.333049339 6.45721104,0.333049339 L82.1014905,0.333049339 L82.1014905,8.85157252" id="Path-8"></path>
                        <path d="M89.8206808,35.4678313 L65.3709796,35.4678313 C57.9528317,35.4678313 54.2437577,38.0752387 54.2437577,43.2900535 C54.2437577,48.5048683 57.9528317,51.1122757 65.3709796,51.1122757 L89.8206808,51.1122757" id="Path-9"></path>
                        <path d="M83.9615385,39.8222222 L64.5787717,39.8222222 C61.3724111,40.0603581 59.7692308,41.2455432 59.7692308,43.3777778 C59.7692308,45.5100123 61.3724111,46.6951975 64.5787717,46.9333333 L83.9615385,46.9333333" id="Path-9"></path>
                        <polyline id="Path-10" points="4.77122838 3.79481295 77.3481515 3.79481295 77.3481515 12.3281463"></polyline>
                    </g>
                    <path d="M142.090312,69.2301194 C141.054566,73.3475527 140.785174,76.9437454 141.282136,80.0186974 C142.032136,84.6593224 139.617748,89.0190229 134.038972,93.097799 C137.448803,89.0190229 138.88614,85.2856245 138.350984,81.8976036 C137.955664,79.3948703 137.194781,77.4015199 136.991917,74.6733696 C130.930467,83.2379657 128.856951,94.45166 120.113053,94.7570036 C106.472522,95.2333415 116.388125,103.87281 109.43557,103.125932 C104.800534,102.628013 99.6348941,98.6830238 93.93865,91.2909643 C90.6037693,86.275218 87.9996113,83.8000558 86.126176,83.8654776 C83.3160229,83.9636103 74.3866647,77.6152415 74.101193,69.4404 C73.8157212,61.2655585 73.7906494,61.3978126 78.894867,52.8983336 C83.9990846,44.3988547 90.8119531,48.2959051 95.3590638,34.0420635 C99.9061746,19.7882218 127.071629,4.83234357 147.967501,8.58617158 C161.898082,11.0887236 174.540022,22.2872373 185.893323,42.1817127 C188.701215,39.3890338 193.417908,37.4328971 200.043403,36.3133027 C209.981645,34.6339111 224.473639,39.0479108 229.8349,44.9294018 C235.196162,50.8108929 223.112565,85.2660884 199.612533,81.108114 C176.112501,76.9501396 174.43707,63.0584355 152.799013,65.1580012 C148.305138,65.5940471 144.856395,67.105109 142.090312,69.2301194 Z" id="Combined-Shape" fill="#EFEFEF"></path>
                    <path d="M112,186.983677 C124.618068,174.803983 130.47098,169.918512 129.558738,172.327267 C139.744424,190.384556 151.671949,198.111425 165.341313,195.507875 C179.010678,192.904326 190.416986,183.068367 199.560239,166 C212.95354,170.218178 221.43346,173.533776 225,175.946795" id="Path-17" stroke="#464646"></path>
                    <path d="M117.693694,88.7186536 C131.34254,88.7186536 129.694583,61.6215351 151.392733,60.2784057 C173.090883,58.9352763 174.280479,72.8769896 197.621085,77.8525704 C220.96169,82.8281511 234.240394,48.8156562 229.08766,42.7506427 C223.934926,36.6856292 209.605806,31.768555 199.615008,33.100084 C192.954477,33.98777 188.172388,35.7781048 185.268743,38.4710885 C174.616666,18.1925078 162.373249,6.5596185 148.538492,3.57242072 C127.786357,-0.908375958 100.115498,13.0903309 95.0737052,27.1767976 C90.0319125,41.2632643 83.3591993,37.1308222 77.9614636,45.4469888 C72.5637278,53.7631555 72.5933999,53.631857 72.5933999,61.8116814 C72.5933999,69.9915059 81.2957637,76.6476375 84.1076297,76.6476375 C85.982207,76.6476375 88.4983967,79.2121758 91.6561988,84.3412522 C97.0909937,91.9276048 102.115809,96.050469 106.730644,96.7098448 C113.652898,97.6989086 104.044848,88.7186536 117.693694,88.7186536 Z" id="Path-32" fill="#059FF5" transform="translate(151.392732, 49.753670) rotate(-2.000000) translate(-151.392732, -49.753670) "></path>
                    <rect id="Rectangle" fill="#DFF5FF" transform="translate(271.238129, 206.275032) rotate(17.000000) translate(-271.238129, -206.275032) " x="222.238129" y="170.775032" width="98" height="71"></rect>
                    <path d="M135.155669,252.164701 L130.305488,221.54186 L131.751669,221.312807 L131.70306,221.005903 L163.309087,216 L164.247694,221.92613 L138.109304,226.066044 L142.088602,251.190341 L201.939219,242.778885 L211.681337,312.09765 L103.742117,327.267518 L94,257.948753 L135.155669,252.164701 Z" id="Combined-Shape" fill="#DFF5FF"></path>
                    <g id="Group-10" transform="translate(218.000000, 164.000000)" stroke="#464646">
                        <path d="M8.82265574,10.8995315 L8.59099739,85.6245863 L108.082011,86.7575811 L108.313669,12.0325263 L8.82265574,10.8995315 Z" id="Rectangle" transform="translate(58.452333, 48.828556) rotate(13.000000) translate(-58.452333, -48.828556) "></path>
                        <polyline id="Path-18" points="22.8292683 24.1449275 25.3748341 12.7826087 35.6707317 15.1151965"></polyline>
                        <polyline id="Path-19" points="15.8619361 52.5507246 12.8414634 64.8637609 21.402439 66.7536232"></polyline>
                        <polyline id="Path-20" points="92.7439024 28.4057971 102.731707 30.6178535 98.3758562 46.8695652"></polyline>
                        <polyline id="Path-21" points="92.7439024 68.173913 89.483511 82.3768116 79.902439 80.3026847"></polyline>
                    </g>
                    <circle id="Oval" fill="#5CE1C7" cx="266" cy="202" r="15"></circle>
                    <g id="Group-12" transform="translate(248.000000, 186.000000)" stroke="#464646">
                        <circle id="Oval" cx="16" cy="14" r="14"></circle>
                        <circle id="Oval" cx="16.5" cy="13.5" r="8.5"></circle>
                        <polyline id="Path-22" points="2.84296789 28 0 39.6236983 10.3737778 37.7485398 17.9796442 44 21 32.9690532"></polyline>
                        <path d="M46,15 L58,18" id="Path-23"></path>
                        <path d="M45,21 L57,24" id="Path-23"></path>
                        <path d="M43,27 L55,30" id="Path-23"></path>
                        <path d="M42,32 L54,35" id="Path-23"></path>
                        <path d="M40,38 L52,41" id="Path-23"></path>
                    </g>
                    <rect id="Rectangle" fill="#5CE1C7" transform="translate(157.156942, 274.561322) rotate(-8.000000) translate(-157.156942, -274.561322) " x="148.656942" y="262.061322" width="17" height="25"></rect>
                    <g id="Group-13" transform="translate(100.000000, 215.000000)" stroke="#464646">
                        <path d="M5.19981993,28.9252047 L5.20491651,99.0369505 L112.357798,99.0447351 L112.352701,28.9329893 L5.19981993,28.9252047 Z" id="Rectangle" transform="translate(58.778809, 63.984970) rotate(-7.000000) translate(-58.778809, -63.984970) "></path>
                        <polyline id="Path-24" points="34.9132604 26 32 4.2667725 67.9842488 0 70 14.8942437"></polyline>
                        <polyline id="Path-25" points="41.2051956 19 40 11.0390456 59 9"></polyline>
                        <path d="M51.0760709,50.6102461 L51.0779905,73.7883053 L68.5777753,73.7897539 L68.5758556,50.6116947 L51.0760709,50.6102461 Z" id="Rectangle" transform="translate(59.826923, 62.200000) rotate(-8.000000) translate(-59.826923, -62.200000) "></path>
                        <circle id="Oval" cx="61" cy="66" r="3"></circle>
                        <path d="M6,68 L46,63" id="Path-26"></path>
                        <path d="M72.7142857,59.7402445 L111.672841,55" id="Path-26"></path>
                    </g>
                    <path d="M191.053223,156 C183.67041,165.87207 176.199219,172.831217 168.639648,176.877441 C161.080078,180.923665 151.484538,176.481445 139.853027,163.550781 L138,159.775391 C146.353841,166.051432 153.289388,169.830892 158.806641,171.11377 C164.323893,172.396647 175.072754,167.358724 191.053223,156 Z" id="Path-35" fill="#EFEFEF"></path>
                    <path d="M119.552734,85.1416016 C136.87207,83.6220703 128.689453,68.4179687 147.018897,59.8488397 C165.348341,51.2797107 184.161467,70.9751205 196.477831,74.4188343 C204.688741,76.7146436 213.012378,73.9823123 221.448744,66.2218406 C234.183752,49.7956356 234.183752,39.3860559 221.448744,34.9931015 C208.713736,30.6001471 197.871543,30.5664887 188.922167,34.8921262 C171.057228,4.00567465 149.673877,-5.12846868 124.772114,7.4896962 C105.732889,17.1372097 101.287093,24.5403762 98.3081076,36.5857179 C97.3142098,40.6044814 82.4790882,36.5857179 78.31259,57.5132197 C75.52848,71.4972565 92.2039509,73.1078539 94.2047419,77.2089564 C98.3701309,85.7469232 104.246885,91.1016971 111.835003,93.2732781 C104.838614,93.5215395 102.138695,95.6545497 103.735244,99.6723087 C105.331794,103.690068 109.498519,107.794336 116.235418,111.985114 C121.181564,137.186557 128.657164,153.503321 138.662219,160.935406 C148.667273,168.367491 156.609677,172.055689 162.489432,172 C182.042577,165.563563 194.899904,154.893214 201.061414,139.988953 C207.222924,125.084692 210.916909,109.512801 212.143371,93.2732781" id="Path-15" stroke="#464646"></path>
                    <path d="M143.229492,57.649292 C140.488607,64.664266 139.493164,70.4920654 140.243164,75.1326904 C140.993164,79.7733154 138.578776,84.133016 133,88.211792 C136.409831,84.133016 137.847168,80.3996175 137.312012,77.0115967 C136.509277,71.9295654 134.199219,68.947876 138.114746,57.649292 C140.725098,50.1169027 142.430013,50.1169027 143.229492,57.649292 Z" id="Path-34" fill="#67A0F5"></path>
                </g>
            </g>
        </g>
    </g>
</svg>