<?xml version="1.0" encoding="UTF-8"?>
<svg width="246px" height="167px" viewBox="0 0 246 167" version="1.1" xmlns="http://www.w3.org/2000/svg" xmlns:xlink="http://www.w3.org/1999/xlink">
    <!-- Generator: Sketch 55.2 (78181) - https://sketchapp.com -->
    <title>graphic_pig</title>
    <desc>Created with Sketch.</desc>
    <g id="Design" stroke="none" stroke-width="1" fill="none" fill-rule="evenodd">
        <g id="300_Homepage" transform="translate(-1016.000000, -2484.000000)">
            <g id="graphic_pig" transform="translate(1016.000000, 2485.000000)">
                <path d="M179.838117,164.145817 C180.418377,163.820971 180.963421,163.40347 181.453159,162.893316 L201.101837,142.432969 C215.888644,130.941234 225.464378,112.579344 225.464378,91.8869952 C225.464378,59.0879852 201.404788,32.1516467 170.664078,29.1476597 L170.664078,3.8433644 C170.664078,3.07589911 170.463521,2.39392977 170.126136,1.82543653 L170.942557,1.10002489 C173.275206,-1.27377806 177.1997,0.448172334 177.1997,3.84310391 L177.1997,29.1473456 C207.94041,32.1513262 232,59.0884104 232,91.8865481 C232,112.579656 222.424266,130.941507 207.636688,142.432415 L187.988781,162.892718 C185.782142,165.192001 182.452703,165.609701 179.838117,164.145817 Z M63,164.145756 C62.4195671,163.820791 61.8743228,163.403112 61.3843536,162.892718 L39.2072257,139.798513 L39.4138186,139.798513 C26.4308443,128.238567 18.1917973,111.069637 18.1917973,91.8865481 C18.1917973,57.0774613 45.2886106,28.8591497 78.7142577,28.8591497 L139.703094,28.8591497 L156.711546,13.7445194 L164.525073,6.80212916 L170.126136,1.82543653 Z" id="Combined-Shape" fill="#EFEFEF"></path>
                <path d="M88,154 L96.1955417,163.163902 C97.1925374,164.278699 98.8082044,164.278699 99.8044583,163.163902 L108,154" id="Fill-10" fill="#5CE1C7"></path>
                <path d="M141,154 L149.195542,163.163902 C150.191796,164.278699 151.807463,164.278699 152.804458,163.163902 L161,154" id="Fill-12" fill="#5CE1C7"></path>
                <path d="M219.566359,65 C222.622733,64.637671 225,61.8771874 225,58.5219217 C225,54.9193128 222.26106,52 218.881041,52 C216.884851,52 215.117618,53.0232899 214,54.6008272 C216.142101,57.8609609 218.007126,61.3386573 219.566359,65" id="Fill-14" fill="#059FF5"></path>
                <path d="M220.566359,66 C223.622733,65.637671 226,62.8771874 226,59.5219217 C226,55.9193128 223.26106,53 219.881041,53 C217.884851,53 216.117618,54.0232899 215,55.6008272 C217.142101,58.8609609 219.007126,62.3386573 220.566359,66 Z" id="Stroke-16" stroke="#464646"></path>
                <path d="M206.83676,44 L206.83676,40.7176591 L207,12.172912 C207,9.370223 203.7934,7.94860372 201.886671,9.90770322 L183,30.9044157 L206.83676,44 Z" id="Fill-20" fill="#5CE1C7"></path>
                <path d="M85,155 L93.1955417,164.163902 C94.1925374,165.278699 95.8082044,165.278699 96.8044583,164.163902 L105,155" id="Stroke-22" stroke="#464646"></path>
                <path d="M144,155 L152.195542,164.163902 C153.191796,165.278699 154.807463,165.278699 155.804458,164.163902 L164,155" id="Stroke-24" stroke="#464646"></path>
                <path d="M142.644008,13.7448009 L125.62107,28.8586605 L64.5767522,28.8586605 C31.1211206,28.8586605 4,57.0778346 4,91.8869952 C4,111.069322 12.2464378,128.238288 25.2410586,139.798259 L25.0342804,139.798259 L47.2313023,162.893316 C49.9309922,165.702228 54.307283,165.702228 57.0062013,162.893316 L64.6739688,154.91533 L156.506634,154.91533 L164.174401,162.893316 C166.87332,165.702228 171.250382,165.702228 173.949301,162.893316 L193.615604,142.432969 C208.415676,130.941234 218,112.579344 218,91.8869952 C218,59.0879852 193.918828,32.1516467 163.150541,29.1476597 L163.150541,3.8433644 C163.150541,0.448425631 159.222527,-1.27352842 156.887785,1.09947679 L150.464544,6.80239592" id="Stroke-8" fill="#DFF5FF"></path>
                <path d="M151.644008,13.7448009 L134.62107,28.8586605 L73.5767522,28.8586605 C40.1211206,28.8586605 13,57.0778346 13,91.8869952 C13,111.069322 21.2464378,128.238288 34.2410586,139.798259 L34.0342804,139.798259 L56.2313023,162.893316 C58.9309922,165.702228 63.307283,165.702228 66.0062013,162.893316 L73.6739688,154.91533 L165.506634,154.91533 L173.174401,162.893316 C175.87332,165.702228 180.250382,165.702228 182.949301,162.893316 L202.615604,142.432969 C217.415676,130.941234 227,112.579344 227,91.8869952 C227,59.0879852 202.918828,32.1516467 172.150541,29.1476597 L172.150541,3.8433644 C172.150541,0.448425631 168.222527,-1.27352842 165.887785,1.09947679 L159.464544,6.80239592" id="Stroke-8" stroke="#464646"></path>
                <path d="M183,58.5 C183,62.0896753 180.314137,65 176.999619,65 C173.686624,65 171,62.0896753 171,58.5 C171,54.9103247 173.686624,52 176.999619,52 C180.314137,52 183,54.9103247 183,58.5" id="Fill-26" fill="#059FF5"></path>
                <path d="M182,59.5 C182,63.0896753 179.314137,66 175.999619,66 C172.686624,66 170,63.0896753 170,59.5 C170,55.9103247 172.686624,53 175.999619,53 C179.314137,53 182,55.9103247 182,59.5 Z" id="Stroke-28" stroke="#464646"></path>
                <path d="M202.838498,41 L203,41 L203,10.19036 C203,7.37225887 199.827539,5.94282205 197.941109,7.91269472 L179,29.3039621" id="Stroke-30" stroke="#464646"></path>
                <path d="M109.091966,41 L80.1867418,41 C78.4264976,41 77,42.566534 77,44.5004222 C77,46.433466 78.4264976,48 80.1867418,48 L122.814027,48 C124.573502,48 126,46.433466 126,44.5004222 C126,42.566534 124.573502,41 122.814027,41 L117.309515,41" id="Fill-56" fill="#059FF5"></path>
                <path d="M107.091966,39 L78.1867418,39 C76.4264976,39 75,40.566534 75,42.5004222 C75,44.433466 76.4264976,46 78.1867418,46 L120.814027,46 C122.573502,46 124,44.433466 124,42.5004222 C124,40.566534 122.573502,39 120.814027,39 L115.309515,39" id="Stroke-58" stroke="#464646"></path>
                <path d="M194,102.5 L198,102.5" id="Stroke-62" stroke="#606060"></path>
                <path d="M43.3351014,123.507489 C42.9727906,123.838268 42.5285195,124 42.0857803,124 C41.5480591,124 41.0134018,123.761059 40.6342394,123.294554 C25.5619587,104.736786 29.3842222,77.8469591 29.5542708,76.711582 C29.7204895,75.6046502 30.697886,74.8528794 31.7442211,75.0243644 C32.7882582,75.199913 33.5013899,76.2402013 33.3367032,77.3479458 C33.297638,77.6072052 29.6408271,103.533953 43.5357894,120.642632 C44.2259416,121.492743 44.1363213,122.775223 43.3351014,123.507489" id="Fill-78" fill="#FFFFFF"></path>
                <path d="M55.3793718,138.467604 C55.0175835,138.824729 54.5644041,139 54.11198,139 C53.5976213,139 53.0855286,138.772888 52.7124108,138.324425 L44.48947,128.438481 C43.7885525,127.596686 43.8474658,126.295731 44.620892,125.532931 C45.3928077,124.770132 46.5869355,124.833493 47.287853,125.67611 L55.5107938,135.562055 C56.2117114,136.403849 56.1520427,137.704805 55.3793718,138.467604" id="Fill-80" fill="#FFFFFF"></path>
                <path d="M198.383482,128.552098 L177.122146,149.474016 C176.765384,149.826303 176.316628,150 175.870115,150 C175.360029,150 174.85069,149.772481 174.481962,149.32723 C173.790129,148.491365 173.849963,147.202093 174.617337,146.447775 L195.877177,125.525857 C196.644551,124.769908 197.827024,124.837593 198.518857,125.673459 C199.209942,126.508509 199.14936,127.79778 198.383482,128.552098" id="Fill-82" fill="#FFFFFF"></path>
                <path d="M203.463501,105 L223.44989,105 C233.142773,105 241,96.7179526 241,86.5 C241,76.2820474 233.142773,68 223.44989,68 L186.549342,68 C176.856459,68 169,76.2820474 169,86.5 C169,96.7179526 176.856459,105 186.549342,105 L187.531688,105" id="Fill-32" fill="#059FF5"></path>
                <path d="M208,84 C208,88.4188061 204.642631,92 200.5,92 C196.358162,92 193,88.4188061 193,84 C193,79.5811939 196.358162,76 200.5,76 C204.642631,76 208,79.5811939 208,84" id="Fill-34" fill="#FFFFFF"></path>
                <path d="M233,84 C233,88.4188061 229.642631,92 225.5,92 C221.358162,92 218,88.4188061 218,84 C218,79.5811939 221.358162,76 225.5,76 C229.642631,76 233,79.5811939 233,84" id="Fill-36" fill="#FFFFFF"></path>
                <path d="M209,83 C209,87.4188061 205.642631,91 201.5,91 C197.358162,91 194,87.4188061 194,83 C194,78.5811939 197.358162,75 201.5,75 C205.642631,75 209,78.5811939 209,83 Z" id="Stroke-38" stroke="#464646"></path>
                <path d="M236,83 C236,87.4188061 232.642631,91 228.5,91 C224.358162,91 221,87.4188061 221,83 C221,78.5811939 224.358162,75 228.5,75 C232.642631,75 236,78.5811939 236,83 Z" id="Stroke-40" stroke="#464646"></path>
                <path d="M207.463501,103 L227.44989,103 C237.142773,103 245,94.7179526 245,84.5 C245,74.2820474 237.142773,66 227.44989,66 L190.549342,66 C180.856459,66 173,74.2820474 173,84.5 C173,94.7179526 180.856459,103 190.549342,103 L191.531688,103" id="Stroke-60" stroke="#464646"></path>
                <path d="M4.42384682,53.165701 L11.152775,53.5388603 C13.8736025,53.6516947 16.4496887,52.6079768 18.4144741,50.6245099 C20.3784897,48.641043 21.4601995,45.9757341 21.4601995,43.1186068 L21.4601995,42.0386207 C21.4601995,36.2897099 16.9916985,31.6119195 11.5,31.6119195 C6.00830153,31.6119195 1.5398005,36.2897099 1.5398005,42.0386207 C1.5398005,46.0047486 2.56222802,49.8362813 4.42384682,53.165701 L4.42384682,53.165701 Z M17.3011984,67 L9.66532771,61.4267884 C3.61237196,57.010129 0,49.761327 0,42.0386207 C0,35.4007363 5.15910156,30 11.5,30 C17.8416683,30 23,35.4007363 23,42.0386207 L23,43.1186068 C23,46.4174 21.7512218,49.4945543 19.4830957,51.784286 C17.2149695,54.0732116 14.2339158,55.2724797 11.0842539,55.1491679 L5.45859276,54.8372615 C6.8367142,56.8594145 8.54820245,58.6470332 10.5453237,60.1042084 L17.6584321,65.2962011 L17.3011984,67 Z" id="Fill-4" fill="#464646"></path>
            </g>
        </g>
    </g>
</svg>