<?xml version="1.0" encoding="UTF-8"?>
<svg width="908px" height="394px" viewBox="0 0 908 394" version="1.1" xmlns="http://www.w3.org/2000/svg" xmlns:xlink="http://www.w3.org/1999/xlink">
    <!-- Generator: Sketch 55.2 (78181) - https://sketchapp.com -->
    <title>graphic_hero</title>
    <desc>Created with Sketch.</desc>
    <defs>
        <polygon id="path-1" points="0.000294446532 0.162858869 884.703471 0.162858869 884.703471 332.35 0.000294446532 332.35"></polygon>
    </defs>
    <g id="Design" stroke="none" stroke-width="1" fill="none" fill-rule="evenodd">
        <g id="300_Homepage" transform="translate(-495.000000, -254.000000)">
            <g id="graphic_hero" transform="translate(495.000000, 254.000000)">
                <g id="Group-69">
                    <g id="Group-5" transform="translate(23.188172, 0.000000)">
                        <mask id="mask-2" fill="white">
                            <use xlink:href="#path-1"></use>
                        </mask>
                        <g id="Clip-4"></g>
                        <path d="M810.563749,115.336504 C806.136745,80.9880207 806.162509,21.4649463 769.090955,4.21664457 C760.867799,0.390566519 751.92693,-0.294767184 743.000784,0.40456796 C710.359177,2.96535787 676.703939,20.2740869 646.885339,32.79506 C613.817521,46.6800682 580.832148,60.9062694 546.761004,72.191431 C487.134109,91.9408324 411.358294,107.693191 359.225063,61.9018456 C230.815458,-50.8915543 136.690472,198.19777 73.9041656,267.480586 C52.0488718,291.596963 26.9877913,314.056012 0.000294446532,332.35 L301.194805,332.35 C291.382374,220.051809 397.860215,188.650998 397.860215,188.650998 C397.860215,188.650998 396.03088,184.966408 399.711461,192.335588 C405.461266,203.846983 422.531068,192.335588 422.531068,192.335588 C422.531068,192.335588 421.344448,198.351049 422.531068,201.915521 C427.683882,217.390798 441.207075,239.731203 456.392419,242.446009 C461.342801,243.331047 488.5599,226.741242 507.698925,184 C507.698925,184 540.30968,199.704767 548.038902,238.39296 L549.511134,248.709812 L519.325212,332.35 L519.652784,332.35 L556.872298,228.72386 C560.552879,217.022339 563.424469,214.074667 571.505554,214.074667 L824.907712,214.074667 C834.388154,214.074667 843.22155,217.022339 839.540968,228.72386 L802.321454,332.35 L841.749317,332.35 C878.187075,278.18653 911.538298,198.461587 852.430365,193.073242 C817.480298,189.892705 813.975648,141.808071 810.563749,115.336504 Z" id="Fill-3" fill="#DFF5FF" mask="url(#mask-2)"></path>
                    </g>
                    <path d="M329.645018,361.932988 C324.290037,346.865976 311.660122,276.056562 354.087264,233.078642 C369.781159,217.181012 394.444156,192.927283 424.166866,186.124722 C431.69196,184.402472 404.846032,290.935691 469.609003,290.935691 C514.225211,290.935691 536.638778,191.225861 548.893304,203.757045 C564.122547,219.330103 572.073985,234.281939 572.747618,248.612552 L528.248014,373.662717 C525.432092,355.806109 506.681361,350.509825 471.995818,357.773865 C419.967505,368.669926 385,389.059971 366.979663,389.059971 C348.959326,389.059971 335,377 329.645018,361.932988 Z" id="Path-6" fill="#464646"></path>
                    <path d="M544.411484,138.451421 C544.411484,138.451421 528.226036,222.296783 481.876798,241.419409 C468.857812,246.791396 444.355986,208.322556 445.091689,198.761242 C445.091689,198.761242 445.827391,181.845073 447.298795,172.28376 C447.298795,172.28376 439.941773,145.070792 448.034497,136.98045 C456.127221,128.890108 456.862924,150.954677 456.862924,150.954677 C460.541435,141.393363 470.473414,134.40625 470.473414,134.40625 C470.473414,134.40625 501.372906,176.328931 549.193548,134.40625" id="Stroke-54" fill="#F9F8F8"></path>
                    <path d="M600.451613,351.9 C619.728027,342.002019 638.102022,330.480854 656.148199,318.538701 C663.583398,313.61863 671.444392,305.681356 680.753676,305.476353 C689.111921,305.292583 696.40568,310.584587 704.842748,310.228028 C722.427771,309.482696 736.373649,287.535668 751.18585,279.706752 C759.997147,275.049525 770.920473,272.98412 779.93509,277.239395 C788.472345,281.270632 792.930665,289.779718 795.72043,298.327608" id="Stroke-1" stroke="#5CE1C7" stroke-width="2"></path>
                    <path d="M438.178386,116.998037 C437.988075,109.732466 438.409111,102.438828 439.56494,95.2604113 C440.729586,88.0184753 443.066961,78.2837771 450.447217,74.9423678 C452.338572,74.0863348 454.416566,73.7938507 456.476924,73.923105 C457.676105,73.9977033 458.86353,74.2170663 460.024502,74.5228452 C460.493299,74.6469293 463.809418,76.0790674 463.987238,75.933564 C463.987238,75.933564 538.201279,15.3686739 550.692751,71.5019866 C550.692751,71.5019866 577.145281,59.6844471 589.636753,85.5353148 C602.128226,111.386183 559.877657,149.423888 541.507845,150.162484 L544.447015,137.606348 C544.447015,137.606348 548.925372,135.610661 548.734326,134.651964 C548.734326,134.651964 508.442183,176.013352 469.865578,134.282665 C469.865578,134.282665 460.680672,139.083541 457.006709,150.90108 C457.006709,150.90108 456.271917,135.39056 451.863162,134.651964 C446.32797,133.725025 444.035417,143.046848 443.793671,146.934819 C443.643038,144.606763 442.16537,142.738115 441.340933,140.626468 C440.682559,138.939515 440.171144,137.213415 439.771417,135.460726 C438.398824,129.447815 438.339306,123.120261 438.178386,116.998037 Z" id="Fill-6" fill="#059FF5"></path>
                    <path d="M443.42648,190.320655 C439.270003,192.793247 431.006599,196.511249 425.272496,194.875736 C423.237979,194.294593 421.521173,193.039704 420.420114,190.816486 C417.843448,185.614637 421.907381,178.034259 425.455398,174.459173 C431.63692,168.229204 437.236943,162.245692 442.20373,154.95625 C442.20373,154.95625 443.050473,162.977043 445.236559,170.997836 L443.42648,190.320655 Z" id="Fill-8" fill="#059FF5"></path>
                    <path d="M504.894669,184.545014 C506.941801,185.446085 504.013901,189.166772 504.990595,196.609185 C505.390646,199.6668 506.981043,202.292067 506.319377,205.193787 C505.438609,209.051661 499.207829,210.906808 498.159192,205.909863 C496.786807,199.35501 502.062695,183.585742 504.894669,184.545014" id="Fill-10" fill="#059FF5"></path>
                    <polygon id="Stroke-12" stroke="#059FF5" points="255.069892 191.834375 360.026882 191.834375 360.026882 65.98125 255.069892 65.98125"></polygon>
                    <polygon id="Fill-14" fill="#464646" points="269.715054 25.659375 269.715054 151.5125 372.231183 25.659375"></polygon>
                    <polygon id="Fill-15" fill="#5CE1C7" points="792.177419 182.39375 830.010753 182.39375 830.010753 144.515625 792.177419 144.515625"></polygon>
                    <polygon id="Fill-16" fill="#464646" points="806.263441 170.396875 814.806452 161.84375 806.263441 153.290625"></polygon>
                    <polygon id="Stroke-17" stroke="#464646" points="661.473118 178.39375 825.010753 178.39375 825.010753 140.515625 661.473118 140.515625"></polygon>
                    <polyline id="Stroke-18" stroke="#464646" points="757.887097 140.596 757.887097 63.5375 861.623656 63.5375 861.623656 167.396875 825.163086 167.396875"></polyline>
                    <path d="M222.11828,253.539063 C222.11828,256.576399 219.660089,259.0375 216.626344,259.0375 C213.592599,259.0375 211.134409,256.576399 211.134409,253.539063 C211.134409,250.501726 213.592599,248.040625 216.626344,248.040625 C219.660089,248.040625 222.11828,250.501726 222.11828,253.539063 Z" id="Stroke-19" stroke="#464646"></path>
                    <path d="M185.505376,269.423438 C185.505376,272.460774 183.047186,274.921875 180.013441,274.921875 C176.979696,274.921875 174.521505,272.460774 174.521505,269.423438 C174.521505,266.386101 176.979696,263.925 180.013441,263.925 C183.047186,263.925 185.505376,266.386101 185.505376,269.423438 Z" id="Stroke-20" stroke="#464646"></path>
                    <path d="M222.11828,270.645313 C222.11828,273.682649 219.660089,276.14375 216.626344,276.14375 C213.592599,276.14375 211.134409,273.682649 211.134409,270.645313 C211.134409,267.607976 213.592599,265.146875 216.626344,265.146875 C219.660089,265.146875 222.11828,267.607976 222.11828,270.645313 Z" id="Stroke-21" stroke="#464646"></path>
                    <path d="M241.645161,270.645313 C241.645161,273.682649 239.186971,276.14375 236.153226,276.14375 C233.119481,276.14375 230.66129,273.682649 230.66129,270.645313 C230.66129,267.607976 233.119481,265.146875 236.153226,265.146875 C239.186971,265.146875 241.645161,267.607976 241.645161,270.645313 Z" id="Stroke-22" stroke="#464646"></path>
                    <path d="M259.951613,271.867188 C259.951613,274.904524 257.493423,277.365625 254.459677,277.365625 C251.425932,277.365625 248.967742,274.904524 248.967742,271.867188 C248.967742,268.829851 251.425932,266.36875 254.459677,266.36875 C257.493423,266.36875 259.951613,268.829851 259.951613,271.867188 Z" id="Stroke-23" stroke="#059FF5"></path>
                    <path d="M185.505376,287.751563 C185.505376,290.788899 183.047186,293.25 180.013441,293.25 C176.979696,293.25 174.521505,290.788899 174.521505,287.751563 C174.521505,284.714226 176.979696,282.253125 180.013441,282.253125 C183.047186,282.253125 185.505376,284.714226 185.505376,287.751563 Z" id="Stroke-24" stroke="#464646"></path>
                    <path d="M222.11828,287.751563 C222.11828,290.788899 219.660089,293.25 216.626344,293.25 C213.592599,293.25 211.134409,290.788899 211.134409,287.751563 C211.134409,284.714226 213.592599,282.253125 216.626344,282.253125 C219.660089,282.253125 222.11828,284.714226 222.11828,287.751563 Z" id="Stroke-25" stroke="#059FF5"></path>
                    <path d="M241.645161,288.973438 C241.645161,292.010774 239.186971,294.471875 236.153226,294.471875 C233.119481,294.471875 230.66129,292.010774 230.66129,288.973438 C230.66129,285.936101 233.119481,283.475 236.153226,283.475 C239.186971,283.475 241.645161,285.936101 241.645161,288.973438 Z" id="Stroke-26" stroke="#059FF5"></path>
                    <path d="M259.951613,288.973438 C259.951613,292.010774 257.493423,294.471875 254.459677,294.471875 C251.425932,294.471875 248.967742,292.010774 248.967742,288.973438 C248.967742,285.936101 251.425932,283.475 254.459677,283.475 C257.493423,283.475 259.951613,285.936101 259.951613,288.973438 Z" id="Stroke-27" stroke="#059FF5"></path>
                    <path d="M185.505376,252.317188 C185.505376,255.354524 183.047186,257.815625 180.013441,257.815625 C176.979696,257.815625 174.521505,255.354524 174.521505,252.317188 C174.521505,249.279851 176.979696,246.81875 180.013441,246.81875 C183.047186,246.81875 185.505376,249.279851 185.505376,252.317188" id="Fill-28" fill="#5CE1C7"></path>
                    <path d="M203.811828,252.317188 C203.811828,255.354524 201.353638,257.815625 198.319892,257.815625 C195.286147,257.815625 192.827957,255.354524 192.827957,252.317188 C192.827957,249.279851 195.286147,246.81875 198.319892,246.81875 C201.353638,246.81875 203.811828,249.279851 203.811828,252.317188" id="Fill-29" fill="#5CE1C7"></path>
                    <path d="M241.645161,253.539063 C241.645161,256.576399 239.186971,259.0375 236.153226,259.0375 C233.119481,259.0375 230.66129,256.576399 230.66129,253.539063 C230.66129,250.501726 233.119481,248.040625 236.153226,248.040625 C239.186971,248.040625 241.645161,250.501726 241.645161,253.539063" id="Fill-30" fill="#464646"></path>
                    <path d="M259.951613,253.539063 C259.951613,256.576399 257.493423,259.0375 254.459677,259.0375 C251.425932,259.0375 248.967742,256.576399 248.967742,253.539063 C248.967742,250.501726 251.425932,248.040625 254.459677,248.040625 C257.493423,248.040625 259.951613,250.501726 259.951613,253.539063" id="Fill-31" fill="#464646"></path>
                    <path d="M203.811828,270.645313 C203.811828,273.682649 201.353638,276.14375 198.319892,276.14375 C195.286147,276.14375 192.827957,273.682649 192.827957,270.645313 C192.827957,267.607976 195.286147,265.146875 198.319892,265.146875 C201.353638,265.146875 203.811828,267.607976 203.811828,270.645313" id="Fill-32" fill="#5CE1C7"></path>
                    <path d="M203.811828,287.751563 C203.811828,290.788899 201.353638,293.25 198.319892,293.25 C195.286147,293.25 192.827957,290.788899 192.827957,287.751563 C192.827957,284.714226 195.286147,282.253125 198.319892,282.253125 C201.353638,282.253125 203.811828,284.714226 203.811828,287.751563" id="Fill-33" fill="#464646"></path>
                    <path d="M185.505376,304.857813 C185.505376,307.895149 183.047186,310.35625 180.013441,310.35625 C176.979696,310.35625 174.521505,307.895149 174.521505,304.857813 C174.521505,301.820476 176.979696,299.359375 180.013441,299.359375 C183.047186,299.359375 185.505376,301.820476 185.505376,304.857813" id="Fill-34" fill="#464646"></path>
                    <path d="M203.811828,306.079688 C203.811828,309.117024 201.353638,311.578125 198.319892,311.578125 C195.286147,311.578125 192.827957,309.117024 192.827957,306.079688 C192.827957,303.042351 195.286147,300.58125 198.319892,300.58125 C201.353638,300.58125 203.811828,303.042351 203.811828,306.079688" id="Fill-35" fill="#464646"></path>
                    <path d="M222.11828,306.079688 C222.11828,309.117024 219.660089,311.578125 216.626344,311.578125 C213.592599,311.578125 211.134409,309.117024 211.134409,306.079688 C211.134409,303.042351 213.592599,300.58125 216.626344,300.58125 C219.660089,300.58125 222.11828,303.042351 222.11828,306.079688 Z" id="Stroke-36" stroke="#059FF5"></path>
                    <path d="M241.645161,306.079688 C241.645161,309.117024 239.186971,311.578125 236.153226,311.578125 C233.119481,311.578125 230.66129,309.117024 230.66129,306.079688 C230.66129,303.042351 233.119481,300.58125 236.153226,300.58125 C239.186971,300.58125 241.645161,303.042351 241.645161,306.079688 Z" id="Stroke-37" stroke="#059FF5"></path>
                    <path d="M259.951613,307.301563 C259.951613,310.338899 257.493423,312.8 254.459677,312.8 C251.425932,312.8 248.967742,310.338899 248.967742,307.301563 C248.967742,304.264226 251.425932,301.803125 254.459677,301.803125 C257.493423,301.803125 259.951613,304.264226 259.951613,307.301563 Z" id="Stroke-38" stroke="#059FF5"></path>
                    <path d="M794.439082,391 L541.343539,391 C526.727989,391 521.581409,391 526.727989,376.325001 L579.664235,228.503124 C583.340363,216.78099 586.207743,213.828125 594.279785,213.828125 L847.375328,213.828125 C856.844299,213.828125 865.667007,216.78099 861.990878,228.503124 L809.054633,376.325001 C805.378505,387.308919 801.702376,391 794.439082,391 Z" id="Stroke-39" stroke="#464646"></path>
                    <path d="M691.983871,241.320313 L897.016129,241.320313" id="Stroke-40" stroke="#464646"></path>
                    <path d="M851.694498,228.08049 C851.148212,230.054536 849.413278,231.290699 847.82,230.842599 C846.226021,230.394498 845.377488,228.431055 845.923775,226.45701 C846.470763,224.482964 848.205697,223.246801 849.798975,223.694901 C851.392252,224.143002 852.240785,226.106445 851.694498,228.08049" id="Fill-41" fill="#059FF5"></path>
                    <path d="M839.490197,228.08049 C838.943911,230.054536 837.208977,231.290699 835.615699,230.842599 C834.02172,230.394498 833.173187,228.431055 833.719474,226.45701 C834.266462,224.482964 836.001396,223.246801 837.594674,223.694901 C839.187951,224.143002 840.036484,226.106445 839.490197,228.08049" id="Fill-42" fill="#059FF5"></path>
                    <path d="M849.253638,230.52424 C848.707351,232.498286 846.972418,233.734449 845.37914,233.286349 C843.785161,232.838248 842.936628,230.874805 843.482915,228.90076 C844.029903,226.926714 845.764837,225.690551 847.358114,226.138651 C848.951392,226.586752 849.799925,228.550195 849.253638,230.52424 Z" id="Stroke-44" stroke="#464646"></path>
                    <path d="M837.049337,230.52424 C836.50305,232.498286 834.768117,233.734449 833.174839,233.286349 C831.58086,232.838248 830.732327,230.874805 831.278614,228.90076 C831.825602,226.926714 833.560535,225.690551 835.153813,226.138651 C836.747091,226.586752 837.595624,228.550195 837.049337,230.52424 Z" id="Stroke-45" stroke="#464646"></path>
                    <path d="M824.845036,230.52424 C824.298749,232.498286 822.563816,233.734449 820.970538,233.286349 C819.376559,232.838248 818.528026,230.874805 819.074313,228.90076 C819.621301,226.926714 821.356234,225.690551 822.949512,226.138651 C824.54279,226.586752 825.391323,228.550195 824.845036,230.52424 Z" id="Stroke-46" stroke="#464646"></path>
                    <polygon id="Fill-47" fill="#059FF5" points="654.877602 283.475 608.994624 283.475 632.676161 228.490625 678.55914 228.490625"></polygon>
                    <polygon id="Stroke-48" stroke="#464646" points="637.791581 292.028125 591.908602 292.028125 615.59014 237.04375 661.473118 237.04375"></polygon>
                    <path d="M605.333333,352.510938 C605.333333,354.872313 603.420411,356.7875 601.061828,356.7875 C598.703245,356.7875 596.790323,354.872313 596.790323,352.510938 C596.790323,350.149562 598.703245,348.234375 601.061828,348.234375 C603.420411,348.234375 605.333333,350.149562 605.333333,352.510938" id="Fill-49" fill="#464646"></path>
                    <path d="M662.693548,317.076563 C662.693548,319.437938 660.780626,321.353125 658.422043,321.353125 C656.06346,321.353125 654.150538,319.437938 654.150538,317.076563 C654.150538,314.715187 656.06346,312.8 658.422043,312.8 C660.780626,312.8 662.693548,314.715187 662.693548,317.076563" id="Fill-50" fill="#464646"></path>
                    <path d="M757.887097,277.976563 C757.887097,280.337938 755.974174,282.253125 753.615591,282.253125 C751.257009,282.253125 749.344086,280.337938 749.344086,277.976563 C749.344086,275.615187 751.257009,273.7 753.615591,273.7 C755.974174,273.7 757.887097,275.615187 757.887097,277.976563" id="Fill-51" fill="#464646"></path>
                    <path d="M800.822581,301.414063 C800.822581,303.775438 798.909658,305.690625 796.551075,305.690625 C794.192492,305.690625 792.27957,303.775438 792.27957,301.414063 C792.27957,299.052687 794.192492,297.1375 796.551075,297.1375 C798.909658,297.1375 800.822581,299.052687 800.822581,301.414063" id="Fill-52" fill="#464646"></path>
                    <path d="M443.941405,149.311194 C443.941405,149.311194 431.460673,70.1076226 466.700387,85.508317 C466.700387,85.508317 540.850618,25.3722722 553.33135,81.1081186 C553.33135,81.1081186 579.761135,69.3742562 592.241867,95.0420802 C604.722599,120.709904 558.470475,154.444759 540.116457,155.178125" id="Stroke-53" stroke="#464646"></path>
                    <path d="M544.411484,138.451421 C544.411484,138.451421 528.226036,222.296783 481.876798,241.419409 C468.857812,246.791396 444.355986,208.322556 445.091689,198.761242 C445.091689,198.761242 445.827391,181.845073 447.298795,172.28376 C447.298795,172.28376 439.941773,145.070792 448.034497,136.98045 C456.127221,128.890108 456.862924,150.954677 456.862924,150.954677 C460.541435,141.393363 470.473414,134.40625 470.473414,134.40625 C470.473414,134.40625 501.372906,176.328931 549.193548,134.40625" id="Stroke-54" stroke="#464646"></path>
                    <path d="M445.456989,191.764405 C441.197616,194.236997 432.729648,197.954999 426.853595,196.319486 C424.768713,195.738343 423.009406,194.483454 421.881091,192.260236 C419.240638,187.058387 423.405175,179.478009 427.041025,175.902923 C433.375573,169.672954 439.114227,163.689442 444.203969,156.4" id="Stroke-55" stroke="#464646"></path>
                    <path d="M538.696289,160.954102 C540.463792,160.954102 541.004445,171.827958 530.887097,182.059375" id="Stroke-56" stroke="#464646"></path>
                    <path d="M528.446237,188.16875 C528.446237,188.16875 564.26709,207 572.804688,247" id="Stroke-57" stroke="#464646"></path>
                    <path d="M515.021505,330.684375 C515.021505,330.684375 485.731183,305.865039 416.166667,318.274707" id="Stroke-58" stroke="#F1F1F1"></path>
                    <path d="M425.734483,177.186523 C425.734483,177.186523 313.534645,209.178955 324.267323,334.951782 C335,460.724609 502,339 528.614258,371.071289" id="Stroke-59" stroke="#464646"></path>
                    <polygon id="Fill-61" fill="#059FF5" points="753.874447 376.3375 738.360215 376.3375 759.45963 309.134375 774.973118 309.134375"></polygon>
                    <path d="M726.400919,375.8375 L740.116709,332.85 L725.910909,332.85 L712.195119,375.8375 L726.400919,375.8375 Z" id="Fill-62" stroke="#464646"></path>
                    <polygon id="Fill-63" fill="#059FF5" points="699.916554 376.3375 684.66129 376.3375 701.137209 326.240625 716.392473 326.240625"></polygon>
                    <polygon id="Fill-64" fill="#464646" points="673.439031 376.3375 657.811828 376.3375 667.812908 347.0125 683.44086 347.0125"></polygon>
                    <polygon id="Fill-65" fill="#464646" points="646.653288 376.3375 630.962366 376.3375 637.239185 358.009375 652.930108 358.009375"></polygon>
                    <path d="M316.091398,331.433594 L0,332.044531" id="Stroke-66" stroke="#464646"></path>
                    <path d="M908,332.655469 L831.112903,333.266406" id="Stroke-67" stroke="#464646"></path>
                    <polygon id="Fill-68" fill="#059FF5" points="837.215054 89.196875 872.607527 89.196875 872.607527 53.7625 837.215054 53.7625"></polygon>
                </g>
                <path d="M463,199 C464.698569,208.371937 468.448569,214.910085 474.25,218.614446 C480.051431,222.318806 485.301431,223.676436 490,222.687335" id="Path-7" stroke="#464646"></path>
            </g>
        </g>
    </g>
</svg>