<?xml version="1.0" encoding="UTF-8"?>
<svg width="353px" height="308px" viewBox="0 0 353 308" version="1.1" xmlns="http://www.w3.org/2000/svg" xmlns:xlink="http://www.w3.org/1999/xlink">
    <!-- Generator: Sketch 55.2 (78181) - https://sketchapp.com -->
    <title>graphic_step3</title>
    <desc>Created with Sketch.</desc>
    <g id="Design" stroke="none" stroke-width="1" fill="none" fill-rule="evenodd">
        <g id="300_Homepage" transform="translate(-795.000000, -1787.000000)">
            <g id="graphic_step3" transform="translate(796.000000, 1788.000000)">
                <polygon id="Fill-1" fill="#059FF5" points="31.4384176 180.866171 31.4384176 245 303 139.516729 303 131.151483 269.863004 87.4265576 260.268112 47.1133829 233.862461 18 212.905595 25.5947955 188.595631 55.9739777 167.638765 59.3494424 155.90292 105.762082 144.167076 121.795539 122.791072 119.685874 104.34903 131.5 89.6792243 145.423792 68.7223585 141.626394 46.927218 148.377323 36.8679224 146.267658 31 151.330855"></polygon>
                <polyline id="Stroke-2" stroke="#464646" points="300 137.880004 266.863106 94.2608272 257.267406 54.0435324 230.861836 25 209.905035 32.5765737 185.595145 62.8828683 164.638344 66.2502344 152.902535 112.551518 141.166727 128.546507 119.790789 126.441903 101.348804 138.227684 86.6790435 152.118069 65.7222423 148.329782 43.927169 155.064515 33.8679044 152.959911 28 158.01096 28.4392546 187.475413 28.4392546 236"></polyline>
                <g id="Group-7" transform="translate(0.000000, 84.000000)" stroke="#464646">
                    <path d="M351.500914,116.494332 L79.9974476,221.607968" id="Stroke-3"></path>
                    <polyline id="Stroke-5" points="60.262819 213.699807 0.419466667 167.449807 0.419466667 0.108897727"></polyline>
                </g>
                <polygon id="Fill-8" fill="#464646" points="72 279 343.560745 174.584726 344 147.436754 322.204927 132.400955 290.769725 124.883055 269.812924 104 250.951802 104.417661 229.156729 119.453461 219.516601 138.24821 204.427704 143.260143 191.853623 160.801909 164.190645 177.508353 145.329524 182.102625 130.240627 171.661098 109.283826 171.243437 101.320241 180.849642 79.9443042 204.238663 72.3998558 228.463007"></polygon>
                <polyline id="Stroke-9" stroke="#F1F1F1" points="352 144.664122 330.204927 129.549618 298.769725 121.992366 277.812924 101 258.951802 101.419847 237.156729 116.534351 227.516601 135.427481 212.427704 140.465649 199.853623 158.099237 172.190645 174.89313 153.329524 179.51145 138.240627 169.015267 117.283826 168.59542 109.320241 178.251908 87.9443042 201.763359 80.3998558 226.114504 80 266"></polyline>
                <polygon id="Fill-11" fill="#5CE1C7" points="47 133.039557 33 138 33 70.9604428 47 66"></polygon>
                <polygon id="Fill-12" fill="#DAF6F1" points="71 99.9155909 57 105 57 46.0844091 71 41"></polygon>
                <polygon id="Fill-13" fill="#5CE1C7" points="93 127.039557 79 132 79 64.9604428 93 60"></polygon>
                <polygon id="Fill-14" fill="#5CE1C7" points="116 111.015798 102 116 102 8.98420186 116 4"></polygon>
                <polygon id="Fill-15" fill="#464646" points="140 92.9869516 126 98 126 22.0130484 140 17"></polygon>
                <polygon id="Fill-16" fill="#059FF5" points="162 55.0015346 148 60 148 26.9984654 162 22"></polygon>
                <polyline id="Stroke-17" stroke="#464646" points="51 128.039557 37 133 37 65.9604428 51 61"></polyline>
                <polyline id="Stroke-18" stroke="#464646" points="73 95.9083064 59 101 59 42"></polyline>
                <polyline id="Stroke-19" stroke="#464646" points="83 60.0315086 97 55 97 123"></polyline>
                <polyline id="Stroke-20" stroke="#464646" points="105 4.98420186 119 0 119 107.015798 105 112"></polyline>
                <polyline id="Stroke-22" stroke="#464646" points="129 93 129 17.0130484 143 12 143 87.9869516"></polyline>
                <polyline id="Stroke-23" stroke="#464646" points="150 21.9984654 164 17 164 50.0015346 150 55"></polyline>
            </g>
        </g>
    </g>
</svg>