<?xml version="1.0" encoding="UTF-8"?>
<svg width="382px" height="291px" viewBox="0 0 382 291" version="1.1" xmlns="http://www.w3.org/2000/svg" xmlns:xlink="http://www.w3.org/1999/xlink">
    <!-- Generator: Sketch 55.2 (78181) - https://sketchapp.com -->
    <title>graphic_step2</title>
    <desc>Created with Sketch.</desc>
    <g id="Design" stroke="none" stroke-width="1" fill="none" fill-rule="evenodd">
        <g id="300_Homepage" transform="translate(-292.000000, -1376.000000)">
            <g id="graphic_step2" transform="translate(293.000000, 1377.000000)">
                <g id="Group-14" transform="translate(215.000000, 23.000000)" fill="#DAF6F1">
                    <path d="M49.860276,12.8353393 L107.411765,7.88191882 L107.411765,30.5424354 L49.860276,27.0882624 L49.860276,30.5424354 L32.2235294,30.5424354 L32.2235294,8.82610701 L49.860276,8.82610701 L49.860276,12.8353393 Z" id="Combined-Shape"></path>
                    <rect id="Rectangle-Copy-5" x="114.247059" y="-3.19744231e-14" width="25.3882353" height="34.4833948"></rect>
                    <path d="M79.6665314,64.8019121 L79.6665314,39.4095941 L85.3233266,39.4095941 L85.3233266,64.8019121 L95.6941176,64.8019121 L95.6941176,76.0873868 L90.9801217,76.0873868 L90.9801217,101.479705 L74.0097363,101.479705 L74.0097363,76.0873868 L68.3529412,76.0873868 L68.3529412,64.8019121 L79.6665314,64.8019121 Z" id="Combined-Shape"></path>
                    <polygon id="Rectangle-Copy-9" transform="translate(39.547059, 187.195572) scale(1, -1) translate(-39.547059, -187.195572) " points="2.84217094e-14 107.391144 6.50048885 107.391144 79.0941176 267 72.5936288 267"></polygon>
                    <polygon id="Rectangle" points="86.9058824 107.391144 93.4063712 107.391144 166 267 159.499511 267"></polygon>
                </g>
                <path d="M212.597318,21 C215.122037,29.3610099 217.690099,35.5120704 220.301503,39.4531814 C222.912908,43.3942924 224.812407,46.0453185 226,47.4062599 C222.869565,49.553306 220.970066,51.9608891 220.301503,54.6290093 C219.298659,58.6311895 208.263308,80.5171862 196.5128,75.1610117 C188.679128,71.5902286 183.841528,68.3964274 182,65.5796081" id="Path-28" stroke="#464646"></path>
                <path d="M198,58 C198.405308,61.1834965 199.439812,63.6307284 201.10351,65.3416956 C202.767209,67.0526628 205.399372,67.4396532 209,66.5026668" id="Path-29" stroke="#464646"></path>
                <path d="M74.4253993,153.558388 C91.1657365,149.659007 157.312718,160.178027 157.312718,145.892044 C157.312718,131.606061 127.141851,80.0655193 151.734626,80.0655193 C176.327401,80.0655193 201.741733,52.0577029 210.744425,35.0813958 C219.747118,18.1050888 178.093104,-1.16000585 157.312718,20.9379248 C136.532333,43.0358555 118.847983,40.2386061 102.035039,40.2386061 C85.2220948,40.2386061 59.0109658,55.2917692 51.3122409,89.7219225 C43.6135161,124.152076 29.0262769,114.910084 22.8354048,133.235114 C16.6445327,151.560144 13.6116144,159.190149 22.8354048,174.013582 C28.9845984,183.89587 48.4687638,198.224676 81.2879012,217 C65.5526751,177.305179 63.2651745,156.157975 74.4253993,153.558388 Z" id="Path-11-Copy" fill="#DFF5FF"></path>
                <path d="M126,95.9325215 C101.776125,80.7651365 45.6680705,158.829879 17.3853516,192.154834 C-1.46979425,214.371471 -4.98804041,237.811753 6.83061316,262.475681 L1.03414327,268" id="Path" stroke="#464646"></path>
                <path d="M36.2745084,192.914161 C17.5395767,215.158135 14.0437617,238.627261 25.7870634,263.321537 C16.8693822,272.26086 25.3724797,279.050926 51.2963558,283.691734 C90.1821699,290.652947 130.845318,280.518296 135.647896,271.207155 C140.450474,261.896014 130.487423,261.515782 127.089306,248.78437 C118.716997,217.41661 118.716997,198.766375 141.539245,189.169162 C164.361493,179.57195 149.676722,170.294645 174.836796,170.294645 C199.99687,170.294645 211.465724,169.172717 220.233243,158.312038 C226.078256,151.071585 241.667175,129.504161 267,93.6097667 L259.655698,83 C247.562005,100.867243 233.254952,115.818545 216.734537,127.853906 C200.214123,139.889267 185.019528,131.691945 171.150752,103.261941 C169.227649,108.926978 160.242954,106.697481 144.196666,96.5734488 C120.127234,81.3874006 64.3769059,159.548201 36.2745084,192.914161 Z" id="Path-32-Copy" fill="#059FF5"></path>
                <path d="M74.4253993,148.558388 C91.1657365,144.659007 157.312718,155.178027 157.312718,140.892044 C157.312718,126.606061 127.141851,75.0655193 151.734626,75.0655193 C176.327401,75.0655193 201.741733,47.0577029 210.744425,30.0813958 C219.747118,13.1050888 178.093104,-6.16000585 157.312718,15.9379248 C136.532333,38.0358555 118.847983,35.2386061 102.035039,35.2386061 C85.2220948,35.2386061 59.0109658,50.2917692 51.3122409,84.7219225 C43.6135161,119.152076 29.0262769,109.910084 22.8354048,128.235114 C16.6445327,146.560144 13.6116144,154.190149 22.8354048,169.013582 C28.9845984,178.89587 48.4687638,193.224676 81.2879012,212 C65.5526751,172.305179 63.2651745,151.157975 74.4253993,148.558388 Z" id="Path-11" fill="#464646"></path>
                <path d="M73.4253993,142.558388 C90.1657365,138.659007 156.312718,149.178027 156.312718,134.892044 C156.312718,120.606061 126.141851,69.0655193 150.734626,69.0655193 C175.327401,69.0655193 200.741733,41.0577029 209.744425,24.0813958 C218.747118,7.10508875 177.093104,-12.1600058 156.312718,9.9379248 C135.532333,32.0358555 117.847983,29.2386061 101.035039,29.2386061 C84.2220948,29.2386061 58.0109658,44.2917692 50.3122409,78.7219225 C42.6135161,113.152076 28.0262769,103.910084 21.8354048,122.235114 C15.6445327,140.560144 12.6116144,148.190149 21.8354048,163.013582 C27.9845984,172.89587 47.4687638,187.224676 80.2879012,206 C64.5526751,166.305179 62.2651745,145.157975 73.4253993,142.558388 Z" id="Path-11" stroke="#464646"></path>
                <path d="M184.077271,73 C176.055364,76.4679379 171.590097,80.4049721 170.68147,84.8111026 C169.772843,89.2172331 169.772843,94.7243757 170.68147,101.33253 C183.317856,121.256124 195.574608,129.580905 207.451727,126.306871 C219.328847,123.032838 236.178271,107.443962 258,79.5402421" id="Path-30" stroke="#464646"></path>
                <g id="Group-16" transform="translate(207.000000, 32.000000)" stroke="#464646">
                    <rect id="Rectangle" x="34.8965517" y="6.40839695" width="16.6896552" height="18.6946565"></rect>
                    <polyline id="Path" points="58.4246617 8.30868321 117.58692 5.07031035 117.58692 0 142.5 0 142.5 29.5419847 117.58692 29.5419847 117.58692 24.6417414 117.58692 24.6417414 54.0517241 21.2288937"></polyline>
                    <path d="M81.0775862,24.6183206 L81.0775862,47.2671756" id="Path-13"></path>
                    <path d="M86.9741379,25.6030534 L86.9741379,48.2519084" id="Path-13"></path>
                    <path d="M96.7931034,62.9016442 L96.7931034,52.6908397 L71.2586207,52.6908397 L71.2586207,62.9016442 L76.7485137,62.9016442 L76.7485137,88.1259542 L92.2181926,88.1259542 L92.2181926,62.9016442 L96.7931034,62.9016442 Z" id="Combined-Shape"></path>
                    <path d="M75.6724138,93.5496183 L0,256.030534" id="Path-14"></path>
                    <path d="M78.6206897,106.351145 L8.84482759,256.030534" id="Path-14"></path>
                    <path d="M160.189655,106.351145 L90.4137931,256.030534" id="Path-14" transform="translate(125.301724, 181.190840) scale(-1, 1) translate(-125.301724, -181.190840) "></path>
                    <path d="M92.3793103,93.5496183 L171,258" id="Path-27"></path>
                </g>
            </g>
        </g>
    </g>
</svg>